<svg width="30" height="26" viewBox="0 0 30 26" fill="none" xmlns="http://www.w3.org/2000/svg">
<path d="M9.43398 0.519531C7.04842 0.519531 4.97388 2.15491 4.41692 4.47454L3.82415 6.94336C3.61485 7.81502 2.8353 8.42956 1.93886 8.42956H1.1432C0.511828 8.42956 0 8.94138 0 9.57276V10.1213C0 10.4497 0.26624 10.716 0.594663 10.716C0.923086 10.716 1.18933 10.9822 1.18933 11.3106V23.7748C1.18933 24.7176 1.95362 25.4819 2.89644 25.4819H3.39499C4.06246 25.4819 4.60355 24.9408 4.60355 24.2734C4.60355 23.6059 5.14464 23.0648 5.81211 23.0648H24.1879C24.8554 23.0648 25.3965 23.6059 25.3965 24.2734C25.3965 24.9408 25.9375 25.4819 26.605 25.4819H27.1026C28.045 25.4819 28.8089 24.718 28.8089 23.7757V11.3115C28.8089 10.9826 29.0755 10.716 29.4044 10.716C29.7334 10.716 30 10.4493 30 10.1204V9.57276C30 8.94138 29.4882 8.42956 28.8568 8.42956H28.0611C27.1647 8.42956 26.3851 7.81502 26.1758 6.94336L25.5831 4.47455C25.0261 2.15491 22.9516 0.519531 20.566 0.519531H9.43398ZM6.3784 2.05753H21.1095C22.5826 2.05753 23.8637 3.06746 24.2075 4.49991C24.6885 6.50344 23.1699 8.42971 21.1095 8.42971H8.88978C6.82933 8.42971 5.31075 6.50345 5.7917 4.49992L6.37791 2.05792C6.37796 2.05769 6.37817 2.05753 6.3784 2.05753ZM2.1772 14.1881C2.1772 13.4422 2.92028 12.9244 3.61999 13.1828L6.23786 14.1496C6.65872 14.305 6.9382 14.7062 6.9382 15.1548C6.9382 15.9007 6.19512 16.4184 5.49542 16.16L2.87754 15.1933C2.45668 15.0378 2.1772 14.6367 2.1772 14.1881ZM26.3776 13.1825C27.0774 12.9243 27.8204 13.4421 27.8204 14.188C27.8204 14.6367 27.541 15.0379 27.1201 15.1934L24.5052 16.1594C23.8051 16.4181 23.0614 15.9001 23.0614 15.1537C23.0614 14.7047 23.3412 14.3032 23.7624 14.1477L26.3776 13.1825ZM10.3958 19.7689C10.3958 19.1381 10.9073 18.6266 11.5381 18.6266H18.4584C19.0892 18.6266 19.6007 19.1381 19.6007 19.7689C19.6007 20.3998 19.0892 20.9112 18.4584 20.9112H11.5381C10.9072 20.9112 10.3958 20.3998 10.3958 19.7689Z" fill="url(#paint0_linear_1478_17766)"/>
<defs>
<linearGradient id="paint0_linear_1478_17766" x1="10.6108" y1="3.85718" x2="14.2717" y2="25.6045" gradientUnits="userSpaceOnUse">
<stop offset="0.0001" stop-color="#fff"/>
<stop offset="1" stop-color="#fff"/>
</linearGradient>
</defs>
</svg>
