<svg width="30" height="27" viewBox="0 0 30 27" fill="none" xmlns="http://www.w3.org/2000/svg">
<path d="M23.1209 12.7698C23.2693 13.028 23.3474 13.3207 23.3474 13.6186C23.3474 13.9165 23.2693 14.2092 23.1209 14.4675L19.7823 20.2271C19.6331 20.4842 19.4191 20.6977 19.1615 20.8461C18.904 20.9946 18.612 21.0728 18.3147 21.073L11.6733 21.073C11.3781 21.0707 11.0886 20.9915 10.8333 20.8432C10.578 20.6948 10.3659 20.4825 10.2177 20.2271L6.87911 14.4675C6.73069 14.2092 6.65258 13.9165 6.65258 13.6186C6.65258 13.3207 6.73069 13.028 6.87911 12.7698L8.72327 9.58956L12.8271 16.6075C12.8946 16.7277 12.9933 16.8274 13.1126 16.8963C13.232 16.9652 13.3677 17.0007 13.5055 16.9991L16.4945 16.9991C16.6323 17.0007 16.768 16.9652 16.8874 16.8963C17.0067 16.8274 17.1054 16.7277 17.1729 16.6075L18.6674 13.9982C18.7351 13.881 18.7707 13.748 18.7707 13.6126C18.7707 13.4773 18.7351 13.3443 18.6674 13.2271L11.9304 1.5703C11.6966 1.16601 11.3606 0.830295 10.9562 0.596843C10.5517 0.363393 10.0929 0.240408 9.62593 0.24023L9.02217 0.24023C8.48786 0.240028 7.96292 0.380525 7.50015 0.647588C7.03738 0.914653 6.65309 1.29887 6.38594 1.76159L0.408109 12.1003C0.140762 12.5627 -6.08137e-07 13.0874 -5.84788e-07 13.6216C-5.61439e-07 14.1558 0.140762 14.6805 0.408109 15.143L6.38594 25.4816C6.65347 25.9438 7.03793 26.3274 7.50067 26.5939C7.96342 26.8605 8.48816 27.0005 9.02217 27L20.9778 27C21.5121 27.0002 22.0371 26.8597 22.4998 26.5926C22.9626 26.3256 23.3469 25.9414 23.6141 25.4786L29.5919 15.14C29.8592 14.6775 30 14.1528 30 13.6186C30 13.0845 29.8592 12.5597 29.5919 12.0973L23.6141 1.7586C23.3469 1.29588 22.9626 0.911664 22.4998 0.644599C22.0371 0.377534 21.5121 0.237039 20.9778 0.237243L15.8967 0.237243L23.1209 12.7698Z" fill="#fff"/>
</svg>
