<svg width="50" height="50" viewBox="0 0 50 50" fill="none" xmlns="http://www.w3.org/2000/svg">
<path d="M6.93359 44.9219L2.92969 0H46.9727L42.9688 44.9219L24.9023 50" fill="#E34F26"/>
<path d="M25 46.0938L39.5508 42.0898L42.9688 3.61328H25" fill="#EF652A"/>
<path d="M25 20.3125H17.6758L17.1875 14.6484H25V9.17969H11.1328L12.5977 25.8789H25V20.3125ZM24.9023 34.668L18.75 33.0078L18.3594 28.6133H12.8906L13.5742 37.3047L24.9023 40.4297V34.668Z" fill="#EBEBEB"/>
<path d="M24.9023 20.3125V25.8789H31.7383L31.0547 33.0078L24.9023 34.668V40.4297L36.2305 37.3047L37.793 20.3125H24.9023ZM24.9023 9.17969V14.6484H38.2812L38.7695 9.17969H24.9023Z" fill="white"/>
</svg>
