<svg xmlns="http://www.w3.org/2000/svg" width="24" height="25" viewBox="0 0 256 256"><g fill="none"><rect width="256" height="256" fill="url(#skillIconsJquery0)" rx="60"/><path fill="#fff" d="M79.238 68.74c-9.986 14.618-8.742 33.633-1.134 49.146l.56 1.105l.378.7c.07.136.15.27.223.402c.132.246.264.482.378.724l.728 1.272l.415.7l.845 1.346l.378.567c.378.605.805 1.206 1.225 1.799l.034.047c.066.095.14.189.19.284c.362.51.755 1.013 1.133 1.512l.42.544l1.03 1.29l.393.48c.469.565.948 1.123 1.437 1.671l.03.03c.019.024.038.038.057.062c.474.535.96 1.058 1.459 1.569l.469.48l1.166 1.165l.476.461c.524.502 1.057.995 1.597 1.48l.303.264l1.45 1.248l.6.488l1.21.945l.647.501l1.849 1.351c.047.032.088.066.136.098c.434.303.875.596 1.317.889l.571.387l2.064 1.286l.571.327l1.55.884c.283.155.573.303.856.45l1.108.567l.255.125l.454.223l1.757.828l.373.189c.678.301 1.361.59 2.049.867l.499.201l1.933.729l.242.087a65.55 65.55 0 0 0 2.155.719l.52.158c.756.227 1.465.498 2.225.643c48.29 8.99 62.321-29.536 62.321-29.536c-11.781 15.632-32.693 19.752-52.505 15.165c-.751-.189-1.479-.41-2.212-.631l-.552-.189a68.818 68.818 0 0 1-2.128-.705l-.293-.108a66.28 66.28 0 0 1-1.877-.709l-.529-.212a57.21 57.21 0 0 1-2.027-.858l-.404-.181l-1.709-.813l-.491-.242a61.425 61.425 0 0 1-1.324-.686l-.882-.473a49.418 49.418 0 0 1-1.584-.905l-.535-.303a77.475 77.475 0 0 1-2.064-1.285c-.189-.123-.371-.253-.558-.378l-1.469-.994l-.472-.34l-1.389-1.021l-.617-.473l-1.253-.998l-.559-.453l-1.56-1.323a1.623 1.623 0 0 0-.189-.146a71.563 71.563 0 0 1-1.64-1.52l-.462-.453l-1.18-1.176l-.46-.473a58.164 58.164 0 0 1-1.446-1.557c-.023-.027-.05-.051-.072-.076c-.5-.557-.989-1.125-1.467-1.701l-.384-.465l-1.058-1.329l-.388-.491l-1.219-1.654c-11-15.282-14.932-36.358-6.162-53.668zm30.999-12.316c-7.22 10.585-6.829 24.75-1.196 35.944a46.995 46.995 0 0 0 3.194 5.43c1.082 1.579 2.282 3.46 3.718 4.726c.52.567 1.064 1.134 1.62 1.713c.14.145.284.283.427.429c.54.535 1.092 1.058 1.656 1.567c.023.019.044.041.068.06a50.108 50.108 0 0 0 1.949 1.645l.439.347c.66.52 1.335 1.021 2.022 1.505c.018.015.037.03.057.044c.302.213.614.415.922.619c.148.099.287.203.435.295c.493.323.993.635 1.499.936l.212.125l1.323.756c.155.089.313.166.472.249l.945.488c.048.025.095.043.14.066c.637.321 1.278.624 1.934.917c.14.062.283.119.427.179a47.23 47.23 0 0 0 1.588.656l.68.254c.483.179.968.351 1.456.516l.657.213c.694.221 1.38.497 2.104.62c37.284 6.291 45.894-22.947 45.894-22.947c-7.759 11.379-22.784 16.812-38.821 12.574a40.838 40.838 0 0 1-2.111-.624c-.214-.066-.423-.136-.635-.189a40.96 40.96 0 0 1-1.476-.518l-.668-.253c-.535-.189-1.064-.425-1.587-.652c-.144-.063-.288-.119-.429-.185a36.784 36.784 0 0 1-1.947-.921c-.329-.164-.652-.336-.976-.507l-.563-.294a38.606 38.606 0 0 1-1.234-.709l-.295-.189a48.895 48.895 0 0 1-1.493-.93c-.152-.099-.299-.189-.45-.306l-.968-.652a52.093 52.093 0 0 1-2.015-1.501l-.454-.363c-7.018-5.644-12.583-13.356-15.227-22.102c-2.773-9.073-2.174-19.252 2.646-27.514zm26.066-9.201c-4.257 6.381-4.674 14.305-1.701 21.352c3.115 7.479 9.498 13.348 16.947 16.129c.307.117.615.22.945.327l.409.132c.438.14.875.302 1.327.39c20.588 4.05 26.171-10.76 27.657-12.94c-4.892 7.174-13.112 8.896-23.198 6.403c-.794-.199-1.673-.492-2.458-.767a29.477 29.477 0 0 1-2.897-1.227a29.891 29.891 0 0 1-5.081-3.159c-9.045-6.975-14.653-20.278-8.763-31.112m-48.654 139.93l-1.394 4.945l1.394-4.943zm7.176 10.733l-1.537-.01zm-.378 7.383l-9.21.034zm1.927-7.372l-1.538-.009zm-1.1 6.744l1.607-6.118zm33.892-28.177l-2.987 14.05zm-7.684 0l-2.268 10.497zm7.154-.633h-6.389a.838.838 0 0 0-.782.631l-4.537 20.995a.837.837 0 0 1-.78.629h-4.523c-4.476 0-3.958-3.094-3.025-7.334l.029-.128l.542-2.892l.234-1.191l2.065-10.079a.508.508 0 0 0-.516-.633h-6.559a.833.833 0 0 0-.779.631l-2.955 14.014c-1.625 7.417-1.194 14.491 7.637 14.712l.255.005h13.859a.837.837 0 0 0 .781-.631l5.976-28.1c.076-.347-.157-.631-.51-.631zm25.493 22.329c.356 0 .567.283.516.631l-.62 3.034zm-.724 6.701l.62-3.036zm-.778.638l-11.776.057z"/><path fill="#fff" d="M140.223 189.783c-.005-.333.373-.904.728-.904l-.798-.013c-.378 3.618.07.917.07.917m4.397 11.299h-.123zm12.696-7.394c.356 0 .567.283.516.631l-.722 3.527zm-9.672 7.404h-.026zm-1.569-.012h-.09zm-.478.002h-.151zm-.467 0h-.132zm.873-.002h-.387zm1.617.012l-1.543.005zm8.197-.048l-8.175.05zm.756-.655l.52-2.541zm-11.144.693h-.299h.337zm-.936 0h-.453zm.486 0h-.378zM51.49 189.858l.993-4.4l-1.134 5.028l-.133.631l.276-1.262zm11.882-18.571h-7.018a.846.846 0 0 0-.788.63l-1.331 5.859a.493.493 0 0 0 .503.63h7.073a.84.84 0 0 0 .782-.63l1.286-5.873c.075-.345-.152-.629-.51-.629zm-1.527 9.769l-2.08 9.523zm-20.388 31.556l5.788.046c-1.709 0-4.53-.032-5.79-.047z"/><path fill="#fff" d="m53.456 181.056l-.994 4.4zm7.882-.63h-7.075a.846.846 0 0 0-.788.63l-1.985 8.8l-.276 1.263l-1.89 8.984c-.093.419-.207.834-.34 1.242c0 0-1.323 3.932-3.542 3.888l-2.202-.041a.848.848 0 0 0-.794.616l-1.465 6.167a.493.493 0 0 0 .493.636l5.79.047c5.55 0 8.474-3.076 10.35-11.922l4.253-19.658c.076-.345-.155-.629-.51-.629zm100.486 20.297c-.355 0-.567-.283-.51-.631l5.321-24.924zm7.395-.633l2.155-10.638z"/><path fill="#fff" d="M161.391 200.408c-.043-.174-.018-.6.057-.946l2.525-11.832l-2.661 12.462c-.076.348.155.631.51.631h.647c-.355 0-1.036-.142-1.078-.315m7.41.173c-.193.076-.643.142-.998.142h.646a.833.833 0 0 0 .775-.633l.129-.631c-.07.347-.378 1.045-.567 1.122zm1.493-5.81l.951-4.695zm20.996-17.934l.293 1.21c.082.346-.143.627-.497.629m-21.739 20.783l.945-4.688zm21.654-23.885l.289 1.24zm-19.756 14.502l.261-1.255l1.015-4.754l-1.149 5.383l-.127.624zm-4.523-15.318l-.221 1.039l-2.526 11.833l2.662-12.462l.085-.408z"/><path fill="#fff" d="m191.585 178.047l-.293-1.21l-.434-1.89c-.575-2.231-2.261-3.522-5.924-3.522l-16.861-.011a.83.83 0 0 0-.778.631l-.261 1.235l-.378 1.865l-5.187 24.295c-.076.348-.1.756-.057.945c.044.189.724.316 1.078.316h5.33c.355 0 .803-.065.998-.142c.195-.078.48-.756.567-1.123l2.023-10.007l2.164-10.139a.837.837 0 0 1 .779-.629l16.771-.008c.354 0 .579-.283.497-.629zm21.592-10.95l-1.291.005h-5.368a1.39 1.39 0 0 0-1.01.533l-11.87 17.39c-.2.293-.429.25-.51-.094l-.874-3.832a.848.848 0 0 0-.788-.629h-7.63c-.356 0-.567.278-.469.62l3.402 11.98c.098.34.104.901.019 1.247l-1.512 5.798a.465.465 0 0 0 .073.444a.475.475 0 0 0 .413.181h7.56a.879.879 0 0 0 .806-.624l1.512-5.797c.118-.408.304-.794.548-1.141l19.291-25.58c.214-.284.099-.514-.257-.511l-2.022.014zm-60.63 15.002c-.045.378-.4.662-.756.662h-9.678c-.334 0-.504-.227-.453-.511l.007-.051l.044-.164c.945-2.457 2.807-4.07 6.343-4.07c3.983 0 4.76 1.947 4.49 4.134zm-2.839-11.167c-12.418 0-15.361 7.538-17.011 15.146c-1.652 7.755-1.509 15.008 11.341 15.008h2.037l1.569-.006l8.177-.049a.83.83 0 0 0 .769-.633l1.242-6.071c.072-.348-.16-.632-.516-.632h-11.553c-4.593 0-5.959-1.221-5.457-4.81h18.468a.742.742 0 0 0 .684-.476a.74.74 0 0 0 .045-.161c2.741-10.339 1.955-17.308-9.791-17.308zM91.01 182.058l-.174.618l-1.394 4.944l-1.395 4.941a.907.907 0 0 1-.82.62h-7.384c-5.599 0-6.962-4.379-5.599-10.838c1.361-6.606 4.036-10.714 9.546-11.129c7.53-.567 9.035 4.729 7.22 10.842zm5.062 10.745s3.478-8.449 4.272-13.331c1.077-6.535-2.192-16.01-14.828-16.01c-12.565 0-18.02 9.046-20.1 18.902c-2.08 9.904.646 18.592 13.136 18.524l19.064-.07a.893.893 0 0 0 .808-.628l1.606-6.12a.478.478 0 0 0-.07-.444a.466.466 0 0 0-.412-.184l-3.075-.019c-.302-.002-.473-.196-.439-.453a.688.688 0 0 1 .038-.144z"/><path fill="#fff" d="M158.267 187.15a.423.423 0 1 1-.847 0a.423.423 0 1 1 .847 0"/><defs><linearGradient id="skillIconsJquery0" x1="0" x2="256" y1="0" y2="256" gradientUnits="userSpaceOnUse"><stop stop-color="#ff5c00"/><stop offset="1" stop-color="#ff0f00"/></linearGradient></defs></g></svg>