<svg width="45" height="50" viewBox="0 0 45 50" fill="none" xmlns="http://www.w3.org/2000/svg">
<path d="M22.2977 49.9072C21.6099 49.9072 20.968 49.7238 20.372 49.4029L14.274 45.7808C13.357 45.2764 13.8155 45.093 14.0906 45.0013C15.3285 44.5887 15.5578 44.497 16.8416 43.7634C16.9791 43.6717 17.1625 43.7175 17.3001 43.8092L21.9767 46.6061C22.1601 46.6978 22.3894 46.6978 22.5269 46.6061L40.8209 36.0148C41.0043 35.9231 41.096 35.7397 41.096 35.5105V14.3738C41.096 14.1446 41.0043 13.9612 40.8209 13.8695L22.5269 3.32409C22.3435 3.23239 22.1143 3.23239 21.9767 3.32409L3.68276 13.8695C3.49936 13.9612 3.40766 14.1904 3.40766 14.3738V35.5105C3.40766 35.6939 3.49936 35.9231 3.68276 36.0148L8.68036 38.9033C11.3855 40.2788 13.0819 38.6741 13.0819 37.0694V16.2078C13.0819 15.9327 13.3112 15.6576 13.6321 15.6576H15.9704C16.2455 15.6576 16.5206 15.8869 16.5206 16.2078V37.0694C16.5206 40.6915 14.5491 42.8005 11.1104 42.8005C10.0558 42.8005 9.23055 42.8005 6.89223 41.6543L2.07802 38.9033C0.885936 38.2156 0.152344 36.9318 0.152344 35.5563V14.4197C0.152344 13.0442 0.885936 11.7604 2.07802 11.0727L20.372 0.48142C21.5182 -0.160473 23.0771 -0.160473 24.2234 0.48142L42.5173 11.0727C43.7094 11.7604 44.443 13.0442 44.443 14.4197V35.5563C44.443 36.9318 43.7094 38.2156 42.5173 38.9033L24.2234 49.4946C23.6273 49.7697 22.9396 49.9072 22.2977 49.9072ZM27.9372 35.3729C19.9135 35.3729 18.2629 31.705 18.2629 28.5872C18.2629 28.3121 18.4922 28.037 18.8131 28.037H21.1973C21.4724 28.037 21.7016 28.2204 21.7016 28.4955C22.0684 30.9255 23.123 32.1176 27.983 32.1176C31.8344 32.1176 33.485 31.2465 33.485 29.1832C33.485 27.9911 33.0265 27.12 27.0202 26.524C22.0226 26.0196 18.9048 24.9192 18.9048 20.9303C18.9048 17.2165 22.0226 15.0157 27.2494 15.0157C33.1182 15.0157 36.0067 17.0331 36.3735 21.4347C36.3735 21.5722 36.3276 21.7098 36.2359 21.8473C36.1442 21.939 36.0067 22.0307 35.8691 22.0307H33.485C33.2557 22.0307 33.0265 21.8473 32.9806 21.6181C32.4304 19.0963 31.0091 18.271 27.2494 18.271C23.0313 18.271 22.5269 19.7382 22.5269 20.8386C22.5269 22.1683 23.123 22.5809 28.8083 23.3145C34.4478 24.0481 37.1071 25.1026 37.1071 29.0457C37.0612 33.0804 33.7601 35.3729 27.9372 35.3729Z" fill="#539E43"/>
</svg>
