<svg width="26" height="26" viewBox="0 0 26 26" fill="none" xmlns="http://www.w3.org/2000/svg">
<path opacity="0.4" d="M20.4578 6.19733L18.1703 3.90983C16.2391 1.97858 15.2741 1.01233 14.0203 0.653583C12.7666 0.293583 11.4353 0.601083 8.77406 1.21608L7.23906 1.56983C4.99906 2.08608 3.87906 2.34483 3.11156 3.11108C2.34531 3.87858 2.08656 4.99858 1.57031 7.23858L1.21531 8.77358C0.601557 11.4361 0.294057 12.7661 0.652807 14.0198C1.01281 15.2736 1.97906 16.2386 3.91031 18.1698L6.19781 20.4573C9.56031 23.8211 11.2403 25.4998 13.3278 25.4998C15.4166 25.4998 17.0966 23.8186 20.4578 20.4573C23.8216 17.0961 25.5003 15.4161 25.5003 13.3273C25.5003 11.2398 23.8191 9.55858 20.4578 6.19733Z" fill="#fff"/>
<path d="M11.9333 15.9103C11.0921 15.0703 11.0996 13.8628 11.6021 12.9066C11.4774 12.7264 11.4197 12.5083 11.4391 12.2901C11.4584 12.0719 11.5536 11.8673 11.7081 11.7119C11.8625 11.5566 12.0666 11.4602 12.2847 11.4396C12.5028 11.419 12.7212 11.4754 12.9021 11.5991C13.3271 11.3741 13.7933 11.2541 14.2583 11.2591C14.507 11.2614 14.7445 11.3624 14.9187 11.5399C15.0929 11.7173 15.1894 11.9567 15.1871 12.2053C15.1848 12.454 15.0838 12.6915 14.9063 12.8657C14.7289 13.0399 14.4895 13.1364 14.2408 13.1341C13.9514 13.1448 13.6779 13.2692 13.4796 13.4803C12.9958 13.9641 13.1233 14.4491 13.2583 14.5853C13.3958 14.7216 13.8796 14.8478 14.3633 14.3641C15.3433 13.3841 17.0358 13.0591 18.1208 14.1428C18.9621 14.9841 18.9546 16.1916 18.4508 17.1478C18.5748 17.328 18.6318 17.5458 18.6121 17.7636C18.5924 17.9814 18.4972 18.1854 18.3429 18.3404C18.1887 18.4954 17.9851 18.5916 17.7674 18.6124C17.5497 18.6331 17.3316 18.5771 17.1508 18.4541C16.5899 18.7617 15.9392 18.8643 15.3108 18.7441C15.1902 18.7193 15.0756 18.671 14.9736 18.6019C14.8716 18.5328 14.7843 18.4444 14.7165 18.3415C14.6487 18.2387 14.6018 18.1235 14.5785 18.0025C14.5553 17.8816 14.5561 17.7572 14.5808 17.6366C14.6056 17.5159 14.6539 17.4013 14.723 17.2994C14.7921 17.1974 14.8806 17.11 14.9834 17.0422C15.0862 16.9744 15.2014 16.9276 15.3224 16.9043C15.4433 16.881 15.5677 16.8818 15.6883 16.9066C15.9096 16.9528 16.2671 16.8803 16.5733 16.5741C17.0583 16.0891 16.9308 15.6053 16.7946 15.4691C16.6583 15.3328 16.1746 15.2066 15.6896 15.6903C14.7096 16.6703 13.0171 16.9953 11.9333 15.9103ZM10.5258 10.8666C10.7646 10.636 10.9551 10.3601 11.0861 10.0551C11.2171 9.75008 11.2861 9.42203 11.289 9.09008C11.2919 8.75813 11.2286 8.42894 11.1029 8.12169C10.9772 7.81445 10.7916 7.53532 10.5568 7.30059C10.3221 7.06586 10.043 6.88023 9.73573 6.75453C9.42849 6.62882 9.09929 6.56557 8.76734 6.56845C8.43539 6.57134 8.10734 6.6403 7.80233 6.77133C7.49732 6.90235 7.22146 7.0928 6.99084 7.33158C6.53545 7.80309 6.28346 8.43459 6.28916 9.09008C6.29485 9.74558 6.55778 10.3726 7.0213 10.8361C7.48482 11.2996 8.11185 11.5626 8.76734 11.5683C9.42283 11.574 10.0543 11.322 10.5258 10.8666Z" fill="#fff"/>
</svg>
