<svg width="31" height="30" viewBox="0 0 31 30" fill="none" xmlns="http://www.w3.org/2000/svg">
<path d="M18.2523 0C16.7351 0 15.5308 1.31613 15.4852 2.90865C15.4831 2.92546 15.482 2.94239 15.4821 2.95933V2.97539V2.97601C15.482 2.98454 15.4809 2.9928 15.4809 3.00134C15.4806 3.01454 15.481 3.02774 15.4821 3.04089L15.4784 4.95898C15.4782 4.98763 15.4811 5.01622 15.487 5.04425C15.487 5.04487 15.487 5.04549 15.487 5.04611C15.5148 5.92749 15.8317 6.7363 16.3441 7.35844C15.8071 8.00177 15.4827 8.84763 15.4728 9.77087C15.4702 9.78971 15.469 9.80871 15.4691 9.82772L15.4561 16.6752C15.4561 16.6761 15.4561 16.6769 15.4561 16.6777C15.4561 16.6785 15.4562 16.6793 15.4561 16.6802V16.7321C15.456 16.7549 15.4579 16.7776 15.4617 16.8001C15.4617 16.8009 15.4617 16.8017 15.4617 16.8025C15.48 17.8201 15.8771 18.744 16.5233 19.401C15.8549 20.0764 15.4477 21.0389 15.4481 22.0853V22.0859C15.4469 22.0987 15.4463 22.1114 15.4463 22.1242L15.437 26.9943C15.437 26.9958 15.437 26.9972 15.437 26.9987C15.437 26.9993 15.437 26.9999 15.437 27.0005V27.05C15.4367 27.0738 15.4386 27.0976 15.4426 27.121C15.5023 28.7001 16.7007 30 18.2085 30C19.1535 30 19.9768 29.4882 20.4757 28.7184C20.6315 28.7925 20.792 28.8584 20.962 28.9056C22.6684 29.3799 24.3995 28.2332 24.8197 26.4147C24.8367 26.341 24.848 26.2673 24.8605 26.1935C26.3875 26.7696 28.142 26.1098 28.9839 24.5578C29.6537 23.3231 29.6013 21.8499 28.9598 20.7008C29.4 20.3062 29.7764 19.8137 30.0579 19.2356C31.1155 17.0636 30.5061 14.4098 28.6867 13.0253C28.9102 12.5351 29.0407 11.9878 29.0407 11.4069C29.0407 9.61804 27.8421 8.1023 26.2433 7.803C26.9115 6.08117 26.4352 4.03486 24.9759 2.88543C24.1298 2.21903 23.1048 1.99519 22.1408 2.168C21.7421 2.23948 21.3554 2.38241 20.9946 2.58635C20.8075 1.14275 19.6655 0.000285359 18.2521 0.000285359L18.2523 0ZM14.8461 0.00556138C13.8962 0.0137 12.9492 0.111981 12.0178 0.299081L12.0196 0.300317L12.0203 0.300935C12.0324 0.325896 12.0441 0.351028 12.0555 0.376323L12.0635 0.396097C12.3622 1.11283 12.3643 1.91881 12.0694 2.6371C11.7744 3.35538 11.2065 3.92727 10.4902 4.2272C9.77413 4.52691 8.96838 4.5303 8.24979 4.23662C7.53119 3.94295 6.95845 3.37619 6.65723 2.66072C6.64381 2.62636 6.63104 2.59174 6.61892 2.5569C5.00564 3.6465 3.61966 5.03946 2.53819 6.6582C3.16783 6.96731 3.66575 7.49197 3.94152 8.13692L3.95017 8.15731C4.24869 8.87397 4.25069 9.67979 3.95573 10.3979C3.66077 11.1161 3.09295 11.6878 2.37688 11.9878C1.71513 12.2639 0.975127 12.2879 0.296903 12.0551C-0.097506 14.0088 -0.0989765 16.0214 0.292577 17.9756C0.32342 17.9605 0.354528 17.9459 0.385885 17.9318C1.10086 17.6294 1.90657 17.6231 2.62623 17.9141C3.34589 18.2051 3.92072 18.7697 4.22458 19.484L4.23323 19.5044C4.53156 20.221 4.53345 21.0267 4.23851 21.7447C3.94356 22.4626 3.37586 23.0343 2.65995 23.3343C2.62193 23.3489 2.58361 23.3627 2.54501 23.3757C3.65058 25.0185 5.07025 26.4265 6.72224 27.5184C7.02189 26.8283 7.57545 26.2798 8.26832 25.9865C8.98336 25.684 9.78923 25.6775 10.509 25.9685C11.2289 26.2596 11.8038 26.8243 12.1076 27.5388L12.1163 27.5592C12.4039 28.2532 12.4141 29.0311 12.1447 29.7324C13.0355 29.901 13.9398 29.9885 14.8464 29.9938V21.1414C13.6648 21.1119 12.5168 20.7424 11.5399 20.077C10.5631 19.4117 9.79881 18.4787 9.33874 17.39C8.70698 15.8896 8.69638 14.1999 9.30924 12.6917C9.92211 11.1835 11.1084 9.98005 12.6076 9.34561C13.3174 9.04757 14.0768 8.88553 14.8464 8.86793V0.00535522L14.8461 0.00556138ZM18.2523 0.790955C19.3303 0.790955 20.2334 1.75688 20.2334 3.00132C20.2329 3.04672 20.2402 3.09187 20.2551 3.13479C20.0407 3.33864 19.843 3.56837 19.6717 3.82998C19.6425 3.87343 19.6222 3.92224 19.612 3.97358C19.6018 4.02493 19.6019 4.07779 19.6123 4.12909C19.6227 4.1804 19.6432 4.22913 19.6725 4.27247C19.7019 4.31581 19.7396 4.35288 19.7834 4.38155C19.8272 4.41022 19.8762 4.42991 19.9277 4.43947C19.9791 4.44904 20.032 4.44829 20.0832 4.43728C20.1343 4.42626 20.1828 4.4052 20.2258 4.37531C20.2688 4.34542 20.3054 4.30729 20.3335 4.26315C21.3118 2.76902 23.1389 2.44469 24.4867 3.50616C25.8345 4.56767 26.1546 6.67065 25.1763 8.16493C24.6201 9.01442 23.7845 9.47619 22.9239 9.52997C22.8376 9.53537 22.751 9.53158 22.6644 9.52874C22.6447 8.60954 22.2871 7.70253 21.5991 7.04091C21.9874 6.44965 22.2196 5.73161 22.2269 4.95906C22.2278 4.90688 22.2184 4.85503 22.1992 4.80651C22.18 4.75798 22.1514 4.71373 22.115 4.67632C22.0786 4.6389 22.0352 4.60906 21.9872 4.58851C21.9392 4.56796 21.8877 4.5571 21.8355 4.55657C21.7833 4.55604 21.7315 4.56585 21.6831 4.58542C21.6348 4.60499 21.5907 4.63395 21.5536 4.67062C21.5165 4.70728 21.4869 4.75094 21.4667 4.79907C21.4466 4.84719 21.4361 4.89884 21.436 4.95103C21.4207 6.55963 20.2376 7.80716 18.8276 7.79109C17.4176 7.77504 16.2566 6.4997 16.2719 4.89111C16.2721 4.87791 16.2717 4.86471 16.2706 4.85156C16.2702 4.84888 16.2698 4.8462 16.2694 4.84353L16.2725 3.1689L16.2731 2.97487C16.286 1.74347 17.1821 0.790955 18.2523 0.790955ZM21.0911 7.65303C22.044 8.61405 22.1384 10.2757 21.279 11.3588C21.2107 11.4449 21.139 11.5246 21.064 11.598C21.0299 11.6313 20.993 11.6587 20.9577 11.6894C20.9302 11.6502 20.9051 11.6093 20.8761 11.5714C20.3591 10.8959 19.6036 10.4322 18.7251 10.3467C18.7121 10.3452 18.6991 10.3444 18.6861 10.3442C18.5834 10.3425 18.4841 10.3809 18.4092 10.4512C18.3343 10.5215 18.2897 10.6182 18.2848 10.7208C18.2799 10.8234 18.3151 10.9239 18.3829 11.001C18.4508 11.0781 18.546 11.1258 18.6484 11.1339C19.9396 11.2596 20.9271 12.5266 20.8075 14.0036C20.7888 14.2346 20.7441 14.455 20.6771 14.6623C20.6599 14.7121 20.6528 14.7647 20.6563 14.8173C20.6597 14.8698 20.6736 14.9211 20.6971 14.9682C20.7206 15.0152 20.7532 15.0572 20.7931 15.0915C20.8331 15.1258 20.8794 15.1518 20.9295 15.1679C20.9796 15.1841 21.0324 15.1901 21.0848 15.1856C21.1372 15.1811 21.1883 15.1661 21.2348 15.1417C21.2814 15.1172 21.3227 15.0837 21.3561 15.0431C21.3896 15.0025 21.4146 14.9556 21.4298 14.9052C21.5155 14.6397 21.5724 14.359 21.596 14.0673C21.6437 13.4786 21.5497 12.9082 21.3445 12.3976C21.5447 12.2414 21.7316 12.06 21.8982 11.8501C22.2595 11.3947 22.4916 10.8674 22.5989 10.3201C23.5209 10.3604 24.4408 10.0338 25.1652 9.38455C25.2278 9.32845 25.2886 9.2699 25.3481 9.20905C25.5267 9.0265 25.6913 8.82272 25.8381 8.59853C25.8491 8.5818 25.8577 8.56408 25.8684 8.54724C27.187 8.66057 28.2499 9.87501 28.2499 11.4064C28.2499 11.82 28.1716 12.2113 28.0312 12.5645C28.0257 12.5781 28.0183 12.5905 28.0126 12.604C27.538 12.3628 27.041 12.2147 26.5413 12.1653C26.0573 12.1174 25.5734 12.161 25.1083 12.2815C24.9578 11.8607 24.6743 11.4909 24.2735 11.2501C24.2057 11.2082 24.1269 11.1878 24.0473 11.1914C23.9621 11.1954 23.8804 11.2268 23.8146 11.281C23.7487 11.3352 23.7021 11.4092 23.6817 11.4921C23.6613 11.5749 23.6683 11.6621 23.7016 11.7407C23.7348 11.8192 23.7926 11.8849 23.8663 11.928C24.3878 12.2413 24.6003 13.0046 24.3 13.6057C24.2531 13.6997 24.1976 13.783 24.1357 13.8553C24.1001 13.8945 24.0729 13.9405 24.0554 13.9904C24.038 14.0404 24.0307 14.0933 24.0341 14.1461C24.0375 14.1989 24.0514 14.2505 24.0751 14.2979C24.0988 14.3452 24.1317 14.3873 24.1719 14.4216C24.2122 14.456 24.2589 14.4819 24.3093 14.4979C24.3598 14.5139 24.4129 14.5196 24.4656 14.5147C24.5183 14.5097 24.5694 14.4943 24.616 14.4692C24.6627 14.4442 24.7038 14.41 24.7369 14.3688C24.8413 14.2467 24.9323 14.1098 25.0076 13.9591C25.1496 13.6749 25.2207 13.37 25.2301 13.0674C26.0787 12.825 27.0009 12.9125 27.8415 13.4048C29.6171 14.4447 30.3097 16.9113 29.3468 18.889C28.8695 19.8693 28.0875 20.5331 27.2099 20.8325C26.815 20.9672 26.4237 20.9311 26.0031 20.7113C25.5824 20.4915 25.1423 20.0742 24.7449 19.4532C24.7429 19.4501 24.7409 19.447 24.7388 19.4439C25.2931 19.0053 25.6633 18.3105 25.6959 17.5271C25.6989 17.4743 25.6911 17.4214 25.6733 17.3717C25.6554 17.3219 25.6277 17.2762 25.5919 17.2373C25.5561 17.1984 25.5128 17.1671 25.4647 17.1453C25.4165 17.1234 25.3645 17.1114 25.3116 17.11C25.2068 17.1072 25.1052 17.1461 25.0291 17.2181C24.9529 17.2902 24.9085 17.3895 24.9056 17.4943C24.865 18.4692 24.1339 19.1785 23.3015 19.1368C23.1713 19.1303 23.0466 19.1058 22.9276 19.0657C22.8784 19.0492 22.8263 19.0425 22.7745 19.046C22.7226 19.0496 22.672 19.0633 22.6255 19.0865C22.5789 19.1096 22.5374 19.1416 22.5033 19.1808C22.4691 19.22 22.443 19.2655 22.4265 19.3148C22.4099 19.364 22.4032 19.4161 22.4068 19.4679C22.4103 19.5197 22.4241 19.5704 22.4472 19.6169C22.4703 19.6634 22.5024 19.705 22.5415 19.7391C22.5807 19.7733 22.6262 19.7994 22.6755 19.8159C22.8615 19.8785 23.0585 19.9163 23.2619 19.9265C23.5359 19.9403 23.7988 19.8997 24.0455 19.8184C24.0548 19.8397 24.0659 19.8602 24.0788 19.8796C24.5313 20.5866 25.0561 21.1093 25.6367 21.4127C26.2172 21.716 26.8637 21.7865 27.4651 21.5814C27.7601 21.4807 28.0436 21.3437 28.3136 21.1785C28.7752 22.0777 28.8059 23.2265 28.2888 24.1798C27.5713 25.5026 26.1267 25.9662 24.9073 25.3526C24.8214 23.9264 23.9177 22.6494 22.5579 22.2598C22.6653 21.6035 22.532 20.9039 22.1352 20.3245C22.0985 20.2692 22.0485 20.224 21.9898 20.1931C21.931 20.1622 21.8654 20.1466 21.7991 20.1477C21.7429 20.1486 21.6875 20.1615 21.6367 20.1855C21.5859 20.2095 21.5407 20.244 21.5043 20.2868C21.4679 20.3296 21.441 20.3797 21.4254 20.4337C21.4099 20.4877 21.406 20.5444 21.4141 20.6001C21.4159 20.6132 21.4184 20.6262 21.4215 20.639C21.4334 20.6864 21.4539 20.7313 21.4821 20.7712C22.006 21.5363 21.8576 22.6466 21.1725 23.2108C21.0654 23.2991 20.953 23.3686 20.8376 23.4209C20.7882 23.441 20.7434 23.4708 20.7058 23.5085C20.6682 23.5463 20.6386 23.5913 20.6189 23.6408C20.5991 23.6902 20.5895 23.7432 20.5907 23.7965C20.592 23.8497 20.6039 23.9022 20.6259 23.9507C20.6479 23.9993 20.6795 24.0429 20.7187 24.0789C20.758 24.1149 20.8041 24.1426 20.8544 24.1604C20.9046 24.1782 20.9579 24.1856 21.0111 24.1822C21.0643 24.1789 21.1162 24.1648 21.1638 24.1408C21.3432 24.0595 21.5157 23.953 21.6755 23.8214C21.95 23.5953 22.1628 23.3175 22.3157 23.0119C22.3181 23.0127 22.3206 23.0135 22.3231 23.0143C23.5832 23.3646 24.3799 24.8014 24.0484 26.2364C23.7997 27.3125 23.016 28.0439 22.108 28.1947C22.0324 28.2072 21.9559 28.2163 21.8788 28.2206C21.7245 28.2293 21.5672 28.221 21.4098 28.1953C21.3311 28.1824 21.2525 28.1653 21.1737 28.1434C21.0487 28.1086 20.9307 28.0601 20.8159 28.0056C20.9207 27.6891 20.9803 27.3506 20.9803 26.9983C20.9816 26.895 20.9423 26.7953 20.871 26.7205C20.7997 26.6457 20.702 26.6018 20.5987 26.5982C20.4954 26.5946 20.3949 26.6315 20.3185 26.7011C20.2421 26.7707 20.1959 26.8674 20.19 26.9705C20.1894 26.9798 20.1892 26.9891 20.1893 26.9983C20.1893 28.165 19.3953 29.0869 18.4078 29.1976C18.342 29.205 18.2756 29.2087 18.2082 29.2087C17.1308 29.2087 16.2286 28.2437 16.2277 27.0002C16.2277 26.9996 16.2277 26.999 16.2277 26.9983L16.237 22.2693C16.2382 22.2531 16.2384 22.2368 16.2376 22.2205C16.1693 20.6387 17.2538 19.3335 18.6315 19.2235C18.7825 19.6323 19.0333 20.0054 19.3841 20.2944C19.5439 20.426 19.7158 20.5331 19.8952 20.6145C19.9426 20.6369 19.994 20.6496 20.0464 20.6519C20.0988 20.6542 20.1512 20.6461 20.2004 20.628C20.2497 20.6099 20.2948 20.5822 20.3332 20.5464C20.3717 20.5107 20.4026 20.4677 20.4242 20.4199C20.4459 20.3721 20.4578 20.3205 20.4593 20.2681C20.4608 20.2156 20.4518 20.1634 20.433 20.1145C20.4141 20.0655 20.3857 20.0208 20.3493 19.983C20.313 19.9451 20.2695 19.9149 20.2214 19.894C20.106 19.8416 19.9936 19.7721 19.8865 19.6839C19.2014 19.1196 19.053 18.0093 19.5769 17.2443C19.619 17.1846 19.6437 17.1145 19.6484 17.0416C19.6531 16.9688 19.6376 16.896 19.6035 16.8315C19.5694 16.7669 19.5181 16.7131 19.4552 16.6759C19.3924 16.6387 19.3205 16.6196 19.2475 16.6208C19.1834 16.6218 19.1204 16.6384 19.0641 16.6692C19.0078 16.7 18.9598 16.744 18.9244 16.7975C18.5849 17.2931 18.4381 17.8769 18.4696 18.4461C17.9895 18.4996 17.5431 18.6592 17.1484 18.904C16.5929 18.3726 16.2351 17.5797 16.2468 16.6881L16.253 13.3044L16.2598 9.8754C16.2604 9.86491 16.2606 9.85439 16.2604 9.84388C16.2533 9.09895 16.5024 8.42249 16.9099 7.91159C17.448 8.32539 18.1037 8.57391 18.818 8.58204C19.6947 8.59205 20.4886 8.23576 21.0908 7.6533L21.0911 7.65303Z" fill="#fff"/>
<defs>
<linearGradient id="paint0_linear_1479_19871" x1="0" y1="0" x2="30.5767" y2="0" gradientUnits="userSpaceOnUse">
<stop stop-color="#fff"/>
<stop offset="1" stop-color="#fff"/>
</linearGradient>
</defs>
</svg>
